<svg width="518" height="263" viewBox="0 0 518 263" fill="none" xmlns="http://www.w3.org/2000/svg">
<g clip-path="url(#clip0_2_70)">
<path fill-rule="evenodd" clip-rule="evenodd" d="M161.952 247.532C129.845 241.776 97.196 244.959 65.0087 243.923C43.7248 243.23 22.4395 241.559 1.17106 241C0.533394 240.985 0.00896029 241.969 0.000103908 243.207C-0.00836745 244.445 0.502216 245.459 1.13949 245.474C22.4057 246.033 43.6886 247.703 64.9702 248.397C97.0997 249.433 129.687 246.242 161.736 251.991C162.371 252.102 162.934 251.2 162.995 249.97C163.053 248.74 162.583 247.651 161.952 247.532Z" fill="#118DA8"/>
</g>
<path d="M16.66 51V6.83H2.03V2H37.17V6.83H22.54V51H16.66ZM53.5546 51.84C50.6613 51.84 48.2579 51.35 46.3446 50.37C44.4313 49.39 43.0079 48.0833 42.0746 46.45C41.1413 44.8167 40.6746 43.0433 40.6746 41.13C40.6746 37.5833 42.0279 34.8533 44.7346 32.94C47.4413 31.0267 51.1279 30.07 55.7946 30.07H65.1746V29.65C65.1746 26.6167 64.3813 24.33 62.7946 22.79C61.2079 21.2033 59.0846 20.41 56.4246 20.41C54.1379 20.41 52.1546 20.9933 50.4746 22.16C48.8413 23.28 47.8146 24.9367 47.3946 27.13H41.3746C41.6079 24.61 42.4479 22.4867 43.8946 20.76C45.3879 19.0333 47.2313 17.7267 49.4246 16.84C51.6179 15.9067 53.9513 15.44 56.4246 15.44C61.2779 15.44 64.9179 16.7467 67.3446 19.36C69.8179 21.9267 71.0546 25.3567 71.0546 29.65V51H65.8046L65.4546 44.77C64.4746 46.73 63.0279 48.41 61.1146 49.81C59.2479 51.1633 56.7279 51.84 53.5546 51.84ZM54.4646 46.87C56.7046 46.87 58.6179 46.2867 60.2046 45.12C61.8379 43.9533 63.0746 42.4367 63.9146 40.57C64.7546 38.7033 65.1746 36.7433 65.1746 34.69V34.62H56.2846C52.8313 34.62 50.3813 35.2267 48.9346 36.44C47.5346 37.6067 46.8346 39.0767 46.8346 40.85C46.8346 42.67 47.4879 44.14 48.7946 45.26C50.1479 46.3333 52.0379 46.87 54.4646 46.87ZM83.0757 51V0.599998H88.9557V30.91L103.166 16.28H110.376L94.9757 31.96L112.336 51H104.846L88.9557 33.01V51H83.0757ZM134.63 51.84C131.317 51.84 128.377 51.0933 125.81 49.6C123.243 48.06 121.213 45.9367 119.72 43.23C118.273 40.5233 117.55 37.3267 117.55 33.64C117.55 30 118.273 26.8267 119.72 24.12C121.167 21.3667 123.173 19.2433 125.74 17.75C128.353 16.21 131.363 15.44 134.77 15.44C138.13 15.44 141.023 16.21 143.45 17.75C145.923 19.2433 147.813 21.2267 149.12 23.7C150.427 26.1733 151.08 28.8333 151.08 31.68C151.08 32.1933 151.057 32.7067 151.01 33.22C151.01 33.7333 151.01 34.3167 151.01 34.97H123.36C123.5 37.63 124.107 39.8467 125.18 41.62C126.3 43.3467 127.677 44.6533 129.31 45.54C130.99 46.4267 132.763 46.87 134.63 46.87C137.057 46.87 139.087 46.31 140.72 45.19C142.353 44.07 143.543 42.5533 144.29 40.64H150.1C149.167 43.86 147.37 46.5433 144.71 48.69C142.097 50.79 138.737 51.84 134.63 51.84ZM134.63 20.41C131.83 20.41 129.333 21.2733 127.14 23C124.993 24.68 123.757 27.1533 123.43 30.42H145.27C145.13 27.2933 144.057 24.8433 142.05 23.07C140.043 21.2967 137.57 20.41 134.63 20.41ZM187.579 66.4L196.189 47.64H194.159L180.369 16.28H186.739L198.219 43.3L210.399 16.28H216.489L193.739 66.4H187.579ZM238.434 51.84C235.167 51.84 232.227 51.0933 229.614 49.6C227.001 48.1067 224.924 46.0067 223.384 43.3C221.891 40.5467 221.144 37.3267 221.144 33.64C221.144 29.9533 221.914 26.7567 223.454 24.05C224.994 21.2967 227.071 19.1733 229.684 17.68C232.344 16.1867 235.307 15.44 238.574 15.44C241.841 15.44 244.781 16.1867 247.394 17.68C250.007 19.1733 252.061 21.2967 253.554 24.05C255.094 26.7567 255.864 29.9533 255.864 33.64C255.864 37.3267 255.094 40.5467 253.554 43.3C252.014 46.0067 249.914 48.1067 247.254 49.6C244.641 51.0933 241.701 51.84 238.434 51.84ZM238.434 46.8C240.441 46.8 242.307 46.31 244.034 45.33C245.761 44.35 247.161 42.88 248.234 40.92C249.307 38.96 249.844 36.5333 249.844 33.64C249.844 30.7467 249.307 28.32 248.234 26.36C247.207 24.4 245.831 22.93 244.104 21.95C242.377 20.97 240.534 20.48 238.574 20.48C236.567 20.48 234.701 20.97 232.974 21.95C231.247 22.93 229.847 24.4 228.774 26.36C227.701 28.32 227.164 30.7467 227.164 33.64C227.164 36.5333 227.701 38.96 228.774 40.92C229.847 42.88 231.224 44.35 232.904 45.33C234.631 46.31 236.474 46.8 238.434 46.8ZM279.91 51.84C275.803 51.84 272.536 50.6033 270.11 48.13C267.683 45.61 266.47 41.76 266.47 36.58V16.28H272.35V35.95C272.35 43.1833 275.313 46.8 281.24 46.8C284.273 46.8 286.77 45.7267 288.73 43.58C290.736 41.3867 291.74 38.2833 291.74 34.27V16.28H297.62V51H292.3L291.88 44.77C290.806 46.9633 289.196 48.69 287.05 49.95C284.95 51.21 282.57 51.84 279.91 51.84ZM310.498 51V16.28H315.818L316.308 22.93C317.382 20.6433 319.015 18.8233 321.208 17.47C323.402 16.1167 326.108 15.44 329.328 15.44V21.6H327.718C325.665 21.6 323.775 21.9733 322.048 22.72C320.322 23.42 318.945 24.6333 317.918 26.36C316.892 28.0867 316.378 30.4667 316.378 33.5V51H310.498ZM4.83 154.4V104.28H10.15L10.71 110.02C11.83 108.34 13.4167 106.823 15.47 105.47C17.57 104.117 20.23 103.44 23.45 103.44C26.9033 103.44 29.9133 104.233 32.48 105.82C35.0467 107.407 37.03 109.577 38.43 112.33C39.8767 115.083 40.6 118.21 40.6 121.71C40.6 125.21 39.8767 128.337 38.43 131.09C37.03 133.797 35.0233 135.943 32.41 137.53C29.8433 139.07 26.8333 139.84 23.38 139.84C20.5333 139.84 17.99 139.257 15.75 138.09C13.5567 136.923 11.8767 135.29 10.71 133.19V154.4H4.83ZM22.75 134.73C25.0833 134.73 27.1367 134.193 28.91 133.12C30.6833 132 32.0833 130.46 33.11 128.5C34.1367 126.54 34.65 124.253 34.65 121.64C34.65 119.027 34.1367 116.74 33.11 114.78C32.0833 112.82 30.6833 111.303 28.91 110.23C27.1367 109.11 25.0833 108.55 22.75 108.55C20.4167 108.55 18.3633 109.11 16.59 110.23C14.8167 111.303 13.4167 112.82 12.39 114.78C11.3633 116.74 10.85 119.027 10.85 121.64C10.85 124.253 11.3633 126.54 12.39 128.5C13.4167 130.46 14.8167 132 16.59 133.12C18.3633 134.193 20.4167 134.73 22.75 134.73ZM67.8051 139.84C64.5384 139.84 61.5984 139.093 58.9851 137.6C56.3717 136.107 54.2951 134.007 52.7551 131.3C51.2617 128.547 50.5151 125.327 50.5151 121.64C50.5151 117.953 51.2851 114.757 52.8251 112.05C54.3651 109.297 56.4417 107.173 59.0551 105.68C61.7151 104.187 64.6784 103.44 67.9451 103.44C71.2117 103.44 74.1517 104.187 76.7651 105.68C79.3784 107.173 81.4317 109.297 82.9251 112.05C84.4651 114.757 85.2351 117.953 85.2351 121.64C85.2351 125.327 84.4651 128.547 82.9251 131.3C81.3851 134.007 79.2851 136.107 76.6251 137.6C74.0117 139.093 71.0717 139.84 67.8051 139.84ZM67.8051 134.8C69.8117 134.8 71.6784 134.31 73.4051 133.33C75.1317 132.35 76.5317 130.88 77.6051 128.92C78.6784 126.96 79.2151 124.533 79.2151 121.64C79.2151 118.747 78.6784 116.32 77.6051 114.36C76.5784 112.4 75.2017 110.93 73.4751 109.95C71.7484 108.97 69.9051 108.48 67.9451 108.48C65.9384 108.48 64.0717 108.97 62.3451 109.95C60.6184 110.93 59.2184 112.4 58.1451 114.36C57.0717 116.32 56.5351 118.747 56.5351 121.64C56.5351 124.533 57.0717 126.96 58.1451 128.92C59.2184 130.88 60.5951 132.35 62.2751 133.33C64.0017 134.31 65.8451 134.8 67.8051 134.8ZM112.361 139.84C108.908 139.84 105.874 139.047 103.261 137.46C100.694 135.873 98.6875 133.703 97.2409 130.95C95.8409 128.197 95.1409 125.07 95.1409 121.57C95.1409 118.07 95.8642 114.967 97.3109 112.26C98.7575 109.507 100.764 107.36 103.331 105.82C105.898 104.233 108.931 103.44 112.431 103.44C115.278 103.44 117.798 104.023 119.991 105.19C122.184 106.357 123.888 107.99 125.101 110.09V88.6H130.981V139H125.661L125.101 133.26C123.981 134.94 122.371 136.457 120.271 137.81C118.171 139.163 115.534 139.84 112.361 139.84ZM112.991 134.73C115.324 134.73 117.378 134.193 119.151 133.12C120.971 132 122.371 130.46 123.351 128.5C124.378 126.54 124.891 124.253 124.891 121.64C124.891 119.027 124.378 116.74 123.351 114.78C122.371 112.82 120.971 111.303 119.151 110.23C117.378 109.11 115.324 108.55 112.991 108.55C110.704 108.55 108.651 109.11 106.831 110.23C105.058 111.303 103.658 112.82 102.631 114.78C101.651 116.74 101.161 119.027 101.161 121.64C101.161 124.253 101.651 126.54 102.631 128.5C103.658 130.46 105.058 132 106.831 133.12C108.651 134.193 110.704 134.73 112.991 134.73ZM159.726 139.84C156.413 139.84 153.426 139.093 150.766 137.6C148.153 136.06 146.076 133.937 144.536 131.23C143.043 128.477 142.296 125.28 142.296 121.64C142.296 118 143.043 114.827 144.536 112.12C146.076 109.367 148.153 107.243 150.766 105.75C153.426 104.21 156.413 103.44 159.726 103.44C163.833 103.44 167.286 104.513 170.086 106.66C172.933 108.807 174.729 111.677 175.476 115.27H169.456C168.989 113.123 167.846 111.467 166.026 110.3C164.206 109.087 162.083 108.48 159.656 108.48C157.696 108.48 155.853 108.97 154.126 109.95C152.399 110.93 150.999 112.4 149.926 114.36C148.853 116.32 148.316 118.747 148.316 121.64C148.316 124.533 148.853 126.96 149.926 128.92C150.999 130.88 152.399 132.373 154.126 133.4C155.853 134.38 157.696 134.87 159.656 134.87C162.083 134.87 164.206 134.287 166.026 133.12C167.846 131.907 168.989 130.203 169.456 128.01H175.476C174.776 131.51 173.003 134.357 170.156 136.55C167.309 138.743 163.833 139.84 159.726 139.84ZM198.438 139.84C195.544 139.84 193.141 139.35 191.228 138.37C189.314 137.39 187.891 136.083 186.958 134.45C186.024 132.817 185.558 131.043 185.558 129.13C185.558 125.583 186.911 122.853 189.618 120.94C192.324 119.027 196.011 118.07 200.678 118.07H210.058V117.65C210.058 114.617 209.264 112.33 207.678 110.79C206.091 109.203 203.968 108.41 201.308 108.41C199.021 108.41 197.038 108.993 195.358 110.16C193.724 111.28 192.698 112.937 192.278 115.13H186.258C186.491 112.61 187.331 110.487 188.778 108.76C190.271 107.033 192.114 105.727 194.308 104.84C196.501 103.907 198.834 103.44 201.308 103.44C206.161 103.44 209.801 104.747 212.228 107.36C214.701 109.927 215.938 113.357 215.938 117.65V139H210.688L210.338 132.77C209.358 134.73 207.911 136.41 205.998 137.81C204.131 139.163 201.611 139.84 198.438 139.84ZM199.348 134.87C201.588 134.87 203.501 134.287 205.088 133.12C206.721 131.953 207.958 130.437 208.798 128.57C209.638 126.703 210.058 124.743 210.058 122.69V122.62H201.168C197.714 122.62 195.264 123.227 193.818 124.44C192.418 125.607 191.718 127.077 191.718 128.85C191.718 130.67 192.371 132.14 193.678 133.26C195.031 134.333 196.921 134.87 199.348 134.87ZM241.259 139.84C237.106 139.84 233.652 138.79 230.899 136.69C228.146 134.59 226.536 131.743 226.069 128.15H232.089C232.462 129.97 233.419 131.557 234.959 132.91C236.546 134.217 238.669 134.87 241.329 134.87C243.802 134.87 245.622 134.357 246.789 133.33C247.956 132.257 248.539 130.997 248.539 129.55C248.539 127.45 247.769 126.05 246.229 125.35C244.736 124.65 242.612 124.02 239.859 123.46C237.992 123.087 236.126 122.55 234.259 121.85C232.392 121.15 230.829 120.17 229.569 118.91C228.309 117.603 227.679 115.9 227.679 113.8C227.679 110.767 228.799 108.293 231.039 106.38C233.326 104.42 236.406 103.44 240.279 103.44C243.966 103.44 246.976 104.373 249.309 106.24C251.689 108.06 253.066 110.673 253.439 114.08H247.629C247.396 112.307 246.626 110.93 245.319 109.95C244.059 108.923 242.356 108.41 240.209 108.41C238.109 108.41 236.476 108.853 235.309 109.74C234.189 110.627 233.629 111.793 233.629 113.24C233.629 114.64 234.352 115.737 235.799 116.53C237.292 117.323 239.299 118 241.819 118.56C243.966 119.027 245.996 119.61 247.909 120.31C249.869 120.963 251.456 121.967 252.669 123.32C253.929 124.627 254.559 126.54 254.559 129.06C254.606 132.187 253.416 134.777 250.989 136.83C248.609 138.837 245.366 139.84 241.259 139.84ZM278.307 139C275.133 139 272.637 138.23 270.817 136.69C268.997 135.15 268.087 132.373 268.087 128.36V109.25H262.067V104.28H268.087L268.857 95.95H273.967V104.28H284.187V109.25H273.967V128.36C273.967 130.553 274.41 132.047 275.297 132.84C276.183 133.587 277.747 133.96 279.987 133.96H283.627V139H278.307ZM330.302 139C327.129 139 324.632 138.23 322.812 136.69C320.992 135.15 320.082 132.373 320.082 128.36V109.25H314.062V104.28H320.082L320.852 95.95H325.962V104.28H336.182V109.25H325.962V128.36C325.962 130.553 326.406 132.047 327.292 132.84C328.179 133.587 329.742 133.96 331.982 133.96H335.622V139H330.302ZM361.716 139.84C358.449 139.84 355.509 139.093 352.896 137.6C350.282 136.107 348.206 134.007 346.666 131.3C345.172 128.547 344.426 125.327 344.426 121.64C344.426 117.953 345.196 114.757 346.736 112.05C348.276 109.297 350.352 107.173 352.966 105.68C355.626 104.187 358.589 103.44 361.856 103.44C365.122 103.44 368.062 104.187 370.676 105.68C373.289 107.173 375.342 109.297 376.836 112.05C378.376 114.757 379.146 117.953 379.146 121.64C379.146 125.327 378.376 128.547 376.836 131.3C375.296 134.007 373.196 136.107 370.536 137.6C367.922 139.093 364.982 139.84 361.716 139.84ZM361.716 134.8C363.722 134.8 365.589 134.31 367.316 133.33C369.042 132.35 370.442 130.88 371.516 128.92C372.589 126.96 373.126 124.533 373.126 121.64C373.126 118.747 372.589 116.32 371.516 114.36C370.489 112.4 369.112 110.93 367.386 109.95C365.659 108.97 363.816 108.48 361.856 108.48C359.849 108.48 357.982 108.97 356.256 109.95C354.529 110.93 353.129 112.4 352.056 114.36C350.982 116.32 350.446 118.747 350.446 121.64C350.446 124.533 350.982 126.96 352.056 128.92C353.129 130.88 354.506 132.35 356.186 133.33C357.912 134.31 359.756 134.8 361.716 134.8ZM425.967 139C422.793 139 420.297 138.23 418.477 136.69C416.657 135.15 415.747 132.373 415.747 128.36V109.25H409.727V104.28H415.747L416.517 95.95H421.627V104.28H431.847V109.25H421.627V128.36C421.627 130.553 422.07 132.047 422.957 132.84C423.843 133.587 425.407 133.96 427.647 133.96H431.287V139H425.967ZM442.517 139V88.6H448.397V110.23C449.564 108.083 451.22 106.427 453.367 105.26C455.514 104.047 457.847 103.44 460.367 103.44C464.38 103.44 467.6 104.7 470.027 107.22C472.454 109.693 473.667 113.52 473.667 118.7V139H467.857V119.33C467.857 112.097 464.94 108.48 459.107 108.48C456.074 108.48 453.53 109.577 451.477 111.77C449.424 113.917 448.397 116.997 448.397 121.01V139H442.517ZM501.386 139.84C498.072 139.84 495.132 139.093 492.566 137.6C489.999 136.06 487.969 133.937 486.476 131.23C485.029 128.523 484.306 125.327 484.306 121.64C484.306 118 485.029 114.827 486.476 112.12C487.922 109.367 489.929 107.243 492.496 105.75C495.109 104.21 498.119 103.44 501.526 103.44C504.886 103.44 507.779 104.21 510.206 105.75C512.679 107.243 514.569 109.227 515.876 111.7C517.182 114.173 517.836 116.833 517.836 119.68C517.836 120.193 517.812 120.707 517.766 121.22C517.766 121.733 517.766 122.317 517.766 122.97H490.116C490.256 125.63 490.862 127.847 491.936 129.62C493.056 131.347 494.432 132.653 496.066 133.54C497.746 134.427 499.519 134.87 501.386 134.87C503.812 134.87 505.842 134.31 507.476 133.19C509.109 132.07 510.299 130.553 511.046 128.64H516.856C515.922 131.86 514.126 134.543 511.466 136.69C508.852 138.79 505.492 139.84 501.386 139.84ZM501.386 108.41C498.586 108.41 496.089 109.273 493.896 111C491.749 112.68 490.512 115.153 490.186 118.42H512.026C511.886 115.293 510.812 112.843 508.806 111.07C506.799 109.297 504.326 108.41 501.386 108.41Z" fill="white"/>
<path d="M190.2 230V172.4H200.44V230H190.2ZM233.383 230.96C229.383 230.96 225.836 230.107 222.743 228.4C219.65 226.693 217.223 224.293 215.463 221.2C213.703 218.107 212.823 214.533 212.823 210.48C212.823 206.373 213.676 202.72 215.383 199.52C217.143 196.32 219.543 193.84 222.583 192.08C225.676 190.267 229.303 189.36 233.463 189.36C237.356 189.36 240.796 190.213 243.783 191.92C246.77 193.627 249.09 195.973 250.743 198.96C252.45 201.893 253.303 205.173 253.303 208.8C253.303 209.387 253.276 210 253.223 210.64C253.223 211.28 253.196 211.947 253.143 212.64H222.983C223.196 215.733 224.263 218.16 226.183 219.92C228.156 221.68 230.53 222.56 233.303 222.56C235.383 222.56 237.116 222.107 238.503 221.2C239.943 220.24 241.01 219.013 241.703 217.52H252.103C251.356 220.027 250.103 222.32 248.343 224.4C246.636 226.427 244.503 228.027 241.943 229.2C239.436 230.373 236.583 230.96 233.383 230.96ZM233.463 197.68C230.956 197.68 228.743 198.4 226.823 199.84C224.903 201.227 223.676 203.36 223.143 206.24H242.903C242.743 203.627 241.783 201.547 240.023 200C238.263 198.453 236.076 197.68 233.463 197.68ZM274.273 230L259.713 190.32H270.433L280.513 220.32L290.593 190.32H301.313L286.673 230H274.273ZM328.299 230.96C324.299 230.96 320.752 230.107 317.659 228.4C314.565 226.693 312.139 224.293 310.379 221.2C308.619 218.107 307.739 214.533 307.739 210.48C307.739 206.373 308.592 202.72 310.299 199.52C312.059 196.32 314.459 193.84 317.499 192.08C320.592 190.267 324.219 189.36 328.379 189.36C332.272 189.36 335.712 190.213 338.699 191.92C341.685 193.627 344.005 195.973 345.659 198.96C347.365 201.893 348.219 205.173 348.219 208.8C348.219 209.387 348.192 210 348.139 210.64C348.139 211.28 348.112 211.947 348.059 212.64H317.899C318.112 215.733 319.179 218.16 321.099 219.92C323.072 221.68 325.445 222.56 328.219 222.56C330.299 222.56 332.032 222.107 333.419 221.2C334.859 220.24 335.925 219.013 336.619 217.52H347.019C346.272 220.027 345.019 222.32 343.259 224.4C341.552 226.427 339.419 228.027 336.859 229.2C334.352 230.373 331.499 230.96 328.299 230.96ZM328.379 197.68C325.872 197.68 323.659 198.4 321.739 199.84C319.819 201.227 318.592 203.36 318.059 206.24H337.819C337.659 203.627 336.699 201.547 334.939 200C333.179 198.453 330.992 197.68 328.379 197.68ZM360.031 230V172.4H370.271V230H360.031Z" fill="white"/>
<path d="M5.175 229V191.8H10.875L11.25 198.475C12.45 196.125 14.175 194.275 16.425 192.925C18.675 191.575 21.225 190.9 24.075 190.9C28.475 190.9 31.975 192.25 34.575 194.95C37.225 197.6 38.55 201.7 38.55 207.25V229H32.25V207.925C32.25 200.175 29.05 196.3 22.65 196.3C19.45 196.3 16.775 197.475 14.625 199.825C12.525 202.125 11.475 205.425 11.475 209.725V229H5.175ZM68.0199 229.9C64.4699 229.9 61.3199 229.1 58.5699 227.5C55.8199 225.85 53.6449 223.575 52.0449 220.675C50.4949 217.775 49.7199 214.35 49.7199 210.4C49.7199 206.5 50.4949 203.1 52.0449 200.2C53.5949 197.25 55.7449 194.975 58.4949 193.375C61.2949 191.725 64.5199 190.9 68.1699 190.9C71.7699 190.9 74.8699 191.725 77.4699 193.375C80.1199 194.975 82.1449 197.1 83.5449 199.75C84.9449 202.4 85.6449 205.25 85.6449 208.3C85.6449 208.85 85.6199 209.4 85.5699 209.95C85.5699 210.5 85.5699 211.125 85.5699 211.825H55.9449C56.0949 214.675 56.7449 217.05 57.8949 218.95C59.0949 220.8 60.5699 222.2 62.3199 223.15C64.1199 224.1 66.0199 224.575 68.0199 224.575C70.6199 224.575 72.7949 223.975 74.5449 222.775C76.2949 221.575 77.5699 219.95 78.3699 217.9H84.5949C83.5949 221.35 81.6699 224.225 78.8199 226.525C76.0199 228.775 72.4199 229.9 68.0199 229.9ZM68.0199 196.225C65.0199 196.225 62.3449 197.15 59.9949 199C57.6949 200.8 56.3699 203.45 56.0199 206.95H79.4199C79.2699 203.6 78.1199 200.975 75.9699 199.075C73.8199 197.175 71.1699 196.225 68.0199 196.225ZM91.6873 229L104.587 210.4L91.6873 191.8H98.5123L108.937 207.175L119.437 191.8H126.187L113.287 210.4L126.187 229H119.437L108.937 213.625L98.5123 229H91.6873ZM150.691 229C147.291 229 144.616 228.175 142.666 226.525C140.716 224.875 139.741 221.9 139.741 217.6V197.125H133.291V191.8H139.741L140.566 182.875H146.041V191.8H156.991V197.125H146.041V217.6C146.041 219.95 146.516 221.55 147.466 222.4C148.416 223.2 150.091 223.6 152.491 223.6H156.391V229H150.691Z" fill="white"/>
<defs>
<clipPath id="clip0_2_70">
<rect width="160" height="104" fill="white" transform="translate(0 159)"/>
</clipPath>
</defs>
</svg>
